<svg viewBox="0 0 24 24" xmlns="http://www.w3.org/2000/svg">
  <defs>
    <linearGradient id="pg" x1="0" y1="0" x2="1" y2="1">
      <stop offset="0%" stop-color="#534BB1"/>
      <stop offset="100%" stop-color="#551BF9"/>
    </linearGradient>
  </defs>
  <rect width="24" height="24" rx="6" fill="url(#pg)"/>
  <path d="M19.5 12.5c0 0-.3 5.5-2 7-.8.7-1.5.5-1.8-.3-.2-.6 0-1.7 0-1.7s-1.2 2.5-2.5 2.5c-.9 0-1.2-.7-1-.2.2.5-1 2.2-2 2.2s-1.5-.8-1.2-2.5c.2-1 .5-2 .5-2s-.8 1.5-1.5 1.5c-.5 0-1-.5-.8-2 .3-2 1.3-4.5 1.3-4.5s.2-1.5 1.5-3C11.5 8 13 7 15 7c3 0 4.5 2.5 4.5 5.5z" fill="#fff"/>
  <circle cx="13" cy="11" r="1.2" fill="#534BB1"/>
  <circle cx="16.5" cy="11" r="1.2" fill="#534BB1"/>
</svg>
