<svg xmlns="http://www.w3.org/2000/svg" viewBox="0 0 48 48">
  <linearGradient id="wa" x1="24" y1="4" x2="24" y2="44" gradientUnits="userSpaceOnUse">
    <stop offset="0" stop-color="#60d669"/>
    <stop offset="1" stop-color="#25d366"/>
  </linearGradient>
  <circle cx="24" cy="24" r="20" fill="url(#wa)"/>
  <path d="M24 14c-5.52 0-10 4.25-10 9.5a9.26 9.26 0 0 0 1.4 4.9L14 34l5.8-1.52A10.07 10.07 0 0 0 24 33c5.52 0 10-4.25 10-9.5S29.52 14 24 14zm5.8 13.2c-.25.7-1.47 1.34-2.03 1.42-.53.08-1.2.11-1.94-.12a17.7 17.7 0 0 1-1.75-.65c-3.08-1.33-5.1-4.43-5.25-4.64-.16-.2-1.27-1.7-1.27-3.24 0-1.54.8-2.3 1.09-2.61.28-.31.62-.39.83-.39h.6c.19 0 .45-.07.7.54.25.62.87 2.12.95 2.27.07.16.12.34.02.54-.1.2-.15.33-.3.5-.15.18-.31.4-.44.53-.15.15-.3.31-.13.61.17.3.78 1.29 1.68 2.09 1.15 1.02 2.12 1.34 2.42 1.49.3.15.47.13.65-.08.17-.2.75-.87.95-1.17.2-.3.4-.25.67-.15.28.1 1.75.83 2.05.98.3.15.5.22.57.35.07.12.07.7-.18 1.4z" fill="#fff"/>
</svg>
