<svg xmlns="http://www.w3.org/2000/svg" viewBox="0 0 200 200">
  <circle cx="100" cy="100" r="100" fill="#2775CA"/>
  <path fill="#fff" d="M122.7 116.5c0-15.3-9-20.4-27-23.4-13-2.5-15.4-5.6-15.4-12.2 0-6.5 4.6-10.6 13.3-10.6 7.5 0 11.7 2.4 13.4 9.3.8 2.5 2.5 4 5 4h8c3.3 0 5.6-2.5 5-5.8-2.5-11.4-10.2-19.7-22-21.4v-8.4c0-3-2.5-5.6-6-6h-4c-3.3 0-6 2.5-6 6v8c-15 2.5-25 12-25 25.8 0 15.3 9 20.4 27 23.4 12 2.5 15.4 6 15.4 13 0 7.4-6.4 12.4-15.2 12.4-12 0-15.8-5.7-17.2-12.2-1-2.5-3.3-4-5.7-4h-8.8c-3.3 0-5.6 2.5-5 5.8 3.3 13 11 20.6 34.5 23.4v10c0 3.4 2.5 6 6 6.4h4c3.4 0 6-2.5 6-6v-10c15.2-3.3 25.3-13.2 25.3-28.5z"/>
  <path fill="#fff" d="M78.4 161.3c-32-11.4-49-46.4-38-78.4 6.2-17.6 19.4-30.6 36.6-36.8 3.4-1.4 5.6-4.7 5.6-8.5V33c0-3.3-2-5.8-5.7-6.4-.7 0-2.4 0-3 .8-37.5 12.4-57.5 53.2-45 90.6 7.5 22.3 25 39.8 47.3 47.3 3.4 1.4 7 0 8-3.5.6-.8.6-1.7.6-3.3v-4.3c0-3-2-6.3-6.4-7.8v15z"/>
  <path fill="#fff" d="M124.7 27.4c-3.5-1.3-7-.2-8 3.4-.7.8-.7 1.6-.7 3.3V38c0 3.7 2.4 7 5.6 8.3 32 11.3 49 46.3 38 78.3-6.2 17.6-19.4 30.7-36.7 36.8-3.4 1.3-5.6 4.6-5.6 8.4v4c0 3.4 2 5.8 5.6 6.5.8 0 2.5 0 3-.8 37.6-12.5 57.6-53.3 45-90.7-7.5-21.6-25-39.3-46.3-46.8z"/>
</svg>
